# This file uses centimeters as units for non-parametric coordinates.

g default
v 6.913648 0.158054 -0.016623
v 6.913591 0.174895 -0.004268
v 6.900978 0.172679 -0.018756
v 6.965552 0.174895 -0.004268
v 6.965552 0.158064 -0.016559
v 6.913705 0.079750 -0.513498
v 6.900978 0.094365 -0.515695
v 6.913705 0.092148 -0.530183
v 6.965552 0.079750 -0.513498
v 6.965552 0.092148 -0.530183
v 7.030126 0.174895 -0.004268
v 7.030126 0.158064 -0.016559
v 7.030126 0.079750 -0.513498
v 7.030126 0.092148 -0.530183
v 7.094700 0.172679 -0.018756
v 7.082030 0.174960 -0.004277
v 7.082030 0.158054 -0.016623
v 7.082030 0.079740 -0.513563
v 7.081973 0.092148 -0.530183
v 7.094700 0.094365 -0.515695
v 6.913648 0.279579 -0.019529
v 6.900978 0.277297 -0.034008
v 6.900978 0.198983 -0.530947
v 6.913648 0.196701 -0.545425
v 7.094700 0.277297 -0.034008
v 7.082030 0.279579 -0.019529
v 7.082030 0.196701 -0.545425
v 7.094700 0.198983 -0.530947
v 6.965552 0.279579 -0.019529
v 6.965552 0.196701 -0.545425
v 7.030126 0.279579 -0.019529
v 7.030126 0.196701 -0.545425
v 6.911736 0.960733 -0.121179
v 6.899066 0.957855 -0.139587
v 6.902894 0.879541 -0.636525
v 6.915564 0.877855 -0.647074
v 7.096666 0.957862 -0.139540
v 7.083997 0.960740 -0.121132
v 7.080114 0.877855 -0.647074
v 7.092783 0.879541 -0.636525
v 6.965552 0.961081 -0.118883
v 6.965552 0.878203 -0.644780
v 7.030126 0.961081 -0.118883
v 7.030126 0.878203 -0.644779
v 6.997856 0.919476 -0.383062
vt 0.582495 0.381548
vt 0.505352 0.384992
vt 0.509239 0.015131
vt 0.587503 0.018383
vt 0.505823 0.399258
vt 0.584777 0.395427
vt 0.000000 0.012216
vt 0.509855 0.000849
vt 0.589916 0.004642
vt 0.596797 0.382649
vt 0.601776 0.017407
vt 0.000124 0.384839
vt 0.000205 0.000000
vt 0.000274 0.401438
vt 0.581691 0.412521
vt 0.584932 0.490786
vt 0.215057 0.494661
vt 0.218525 0.417521
vt 0.599221 0.490173
vt 0.595434 0.410116
vt 0.587858 1.000000
vt 0.200799 0.494185
vt 0.204618 0.415273
vt 0.217420 0.403220
vt 0.582708 0.398275
vt 0.215215 0.999915
vt 0.198608 0.999762
vt 0.600066 0.999800
vt 0.898895 0.385769
vt 0.860675 0.385730
vt 0.860664 0.015339
vt 0.898841 0.015333
vt 0.860633 0.401111
vt 0.898895 0.401115
vt 0.860661 0.000032
vt 0.898838 0.000026
vt 0.946443 0.385763
vt 0.946391 0.015324
vt 0.946447 0.401109
vt 0.946386 0.000017
vt 0.984663 0.385712
vt 0.984611 0.015272
vt 0.984668 0.401128
vt 0.984563 0.000000
vt 0.185301 0.794750
vt 0.124746 0.597938
vt 0.194631 0.786884
vt 0.148493 0.793038
vt 0.197520 0.416412
vt 0.100944 0.793035
vt 0.188191 0.402692
vt 0.064135 0.794740
vt 0.148524 0.401014
vt 0.054806 0.786873
vt 0.100975 0.401011
vt 0.052016 0.416436
vt 0.061347 0.402717
vt 0.644973 0.077903
vt 0.606753 0.077899
vt 0.606718 0.000000
vt 0.644979 0.000004
vt 0.605280 0.585022
vt 0.692522 0.077906
vt 0.692528 0.000007
vt 0.644944 0.585034
vt 0.692493 0.585036
vt 0.730748 0.000058
vt 0.730742 0.077908
vt 0.732197 0.585032
vt 0.733002 0.584936
vt 0.732956 0.507135
vt 0.771176 0.507133
vt 0.771179 0.584935
vt 0.771145 0.000003
vt 0.818725 0.507131
vt 0.818728 0.584933
vt 0.734297 0.000012
vt 0.818694 0.000000
vt 0.856945 0.507131
vt 0.856906 0.584932
vt 0.855543 0.000007
vn -0.758161 0.096977 0.644816
vn -0.756695 0.097294 0.646488
vn -0.757233 0.094421 0.646284
vn -0.757233 0.094421 0.646284
vn -0.758463 -0.643778 0.101412
vn -0.758463 -0.643778 0.101412
vn -0.758463 -0.643778 0.101412
vn -0.758463 -0.643778 0.101412
vn -0.000443 -0.590653 0.806925
vn -0.000443 -0.590653 0.806925
vn -0.000198 -0.590159 0.807287
vn -0.000198 -0.590159 0.807287
vn 0.000396 -0.589761 0.807578
vn 0.000396 -0.589761 0.807578
vn -0.755189 -0.094742 -0.648624
vn -0.756324 -0.094497 -0.647336
vn -0.755773 -0.094670 -0.647954
vn -0.755773 -0.094670 -0.647954
vn 0.000000 -0.802658 -0.596440
vn 0.000000 -0.802658 -0.596440
vn 0.000000 -0.802659 -0.596438
vn 0.000000 -0.802659 -0.596438
vn -0.000203 -0.802357 -0.596844
vn -0.000203 -0.802357 -0.596844
vn 0.000888 -0.589763 0.807576
vn 0.000888 -0.589763 0.807576
vn -0.000455 -0.801979 -0.597351
vn -0.000455 -0.801979 -0.597352
vn 0.757979 0.094151 0.645448
vn 0.756512 0.094343 0.647139
vn 0.756512 0.094342 0.647140
vn 0.756512 0.094342 0.647140
vn 0.759187 -0.642937 0.101323
vn 0.759187 -0.642938 0.101323
vn 0.759187 -0.642937 0.101323
vn 0.759187 -0.642938 0.101323
vn 0.755202 -0.097501 -0.648200
vn 0.756339 -0.097354 -0.646895
vn 0.755773 -0.094670 -0.647954
vn 0.755773 -0.094670 -0.647954
vn -0.000000 -0.987809 0.155672
vn -0.000000 -0.987809 0.155672
vn -0.000000 -0.987809 0.155672
vn -0.000000 -0.987809 0.155672
vn 0.000000 -0.987809 0.155672
vn 0.000000 -0.987809 0.155672
vn 0.000001 -0.987809 0.155673
vn 0.000001 -0.987809 0.155673
vn -0.000620 0.145014 0.989429
vn 0.000000 0.146814 0.989164
vn 0.000000 0.144258 0.989540
vn 0.000000 0.144258 0.989540
vn -1.000000 0.000000 0.000000
vn -0.999997 0.000058 -0.002381
vn -0.999998 0.002099 -0.000331
vn -1.000000 0.000000 0.000000
vn 0.000000 -0.144258 -0.989540
vn 0.001847 -0.144399 -0.989518
vn 0.000000 -0.144262 -0.989540
vn 0.000000 -0.144258 -0.989540
vn 0.000000 0.144262 0.989540
vn 0.000000 0.144258 0.989540
vn -0.000576 -0.145017 -0.989429
vn 0.000000 -0.144258 -0.989540
vn 0.000000 0.144258 0.989540
vn 0.001938 0.144406 0.989517
vn 0.000000 -0.146812 -0.989165
vn 0.000000 -0.144258 -0.989540
vn 1.000000 0.000000 0.000000
vn 0.999998 0.002099 -0.000331
vn 0.999997 0.000029 -0.002410
vn 1.000000 0.000000 0.000000
vn -0.634247 -0.458717 0.622342
vn -0.634247 -0.458717 0.622342
vn -0.634247 -0.458717 0.622342
vn -0.633493 -0.621053 -0.461497
vn -0.633493 -0.621053 -0.461497
vn -0.633493 -0.621053 -0.461497
vn 0.632547 -0.456785 0.625485
vn 0.632547 -0.456785 0.625485
vn 0.632547 -0.456785 0.625485
vn 0.635195 -0.617838 -0.463469
vn 0.635195 -0.617838 -0.463469
vn 0.635195 -0.617838 -0.463469
vn -0.825815 0.081031 0.558089
vn -0.826893 0.080733 0.556535
vn -0.647277 -0.114991 -0.753531
vn -0.644600 -0.115429 -0.755756
vn 0.825833 0.084019 0.557621
vn 0.826913 0.083835 0.556046
vn 0.647270 -0.110809 -0.754163
vn 0.644587 -0.111068 -0.756421
vn -0.040784 0.144323 0.988690
vn -0.012689 0.144251 0.989460
vn -0.999989 -0.001235 -0.004415
vn -0.999967 -0.003908 -0.007087
vn 0.012222 -0.145163 -0.989332
vn 0.046374 -0.147565 -0.987965
vn 0.011740 0.145128 0.989343
vn -0.012953 -0.144250 -0.989456
vn 0.042185 0.147280 0.988195
vn -0.043705 -0.144317 -0.988566
vn 0.999989 -0.001292 -0.004472
vn 0.999966 -0.004003 -0.007182
vn -0.000572 0.987773 -0.155898
vn 0.000001 0.987809 -0.155670
vn -0.000449 0.987788 -0.155802
vn 0.000443 0.987831 -0.155532
vn 0.000451 0.987840 -0.155475
vn 0.000124 0.987827 -0.155556
vn -0.000118 0.987827 -0.155556
vn -0.000447 0.987840 -0.155474
vn -0.000441 0.987831 -0.155530
vn -0.000135 0.987790 -0.155791
vn 0.000135 0.987790 -0.155791
vn 0.000571 0.987773 -0.155898
vn 0.000450 0.987788 -0.155803
s 1
g polySurface163 inside backside
f 21/5/1 22/2/2 3/1/3 2/6/4
s off
f 1/10/5 3/1/6 7/4/7 6/11/8
s 2
f 2/33/9 1/30/10 5/29/11 4/34/12
f 4/34/12 5/29/11 12/37/13 11/39/14
s 3
f 23/3/15 24/8/16 8/9/17 7/4/18
s 4
f 6/31/19 8/35/20 10/36/21 9/32/22
f 9/32/22 10/36/21 14/40/23 13/38/24
s 2
f 11/39/14 12/37/13 17/41/25 16/43/26
s 4
f 13/38/24 14/40/23 19/44/27 18/42/28
s 5
f 25/17/29 26/22/30 16/23/31 15/18/32
s off
f 15/18/33 17/24/34 18/25/35 20/15/36
s 6
f 27/19/37 28/16/38 20/15/39 19/20/40
s 7
f 5/29/41 1/30/42 6/31/43 9/32/44
f 12/37/45 5/29/41 9/32/44 13/38/46
f 17/41/47 12/37/45 13/38/46 18/42/48
s 8
f 29/58/49 21/59/50 2/60/51 4/61/52
s 9
f 3/1/53 22/2/54 23/3/55 7/4/56
s 10
f 8/70/57 24/71/58 30/72/59 10/73/60
s 8
f 31/63/61 29/58/49 4/61/52 11/64/62
s 10
f 30/72/59 32/75/63 14/76/64 10/73/60
s 8
f 16/67/65 26/68/66 31/63/61 11/64/62
s 10
f 32/75/63 27/79/67 19/80/68 14/76/64
s 11
f 20/15/69 28/16/70 25/17/71 15/18/72
s off
f 1/10/73 2/6/74 3/1/75
f 6/11/76 7/4/77 8/9/78
f 15/18/79 16/23/80 17/24/81
f 18/25/82 19/20/83 20/15/84
s 1
f 22/2/2 21/5/1 34/12/85
f 34/12/85 21/5/1 33/14/86
s 3
f 24/8/16 23/3/15 36/13/87
f 36/13/87 23/3/15 35/7/88
s 5
f 26/22/30 25/17/29 38/27/89
f 38/27/89 25/17/29 37/26/90
s 6
f 28/16/38 27/19/37 40/21/91
f 40/21/91 27/19/37 39/28/92
s 8
f 21/59/50 29/58/49 33/62/93
f 33/62/93 29/58/49 41/65/94
s 9
f 23/3/55 22/2/54 35/7/95
f 35/7/95 22/2/54 34/12/96
s 10
f 30/72/59 24/71/58 42/74/97
f 42/74/97 24/71/58 36/77/98
s 8
f 29/58/49 31/63/61 43/66/99 41/65/94
s 10
f 32/75/63 30/72/59 42/74/97 44/78/100
s 8
f 31/63/61 26/68/66 43/66/99
f 43/66/99 26/68/66 38/69/101
s 10
f 27/79/67 32/75/63 39/81/102
f 39/81/102 32/75/63 44/78/100
s 11
f 28/16/70 40/21/103 25/17/71
f 25/17/71 40/21/103 37/26/104
s 12
f 39/45/105 45/46/106 40/47/107
f 34/56/108 33/57/109 45/46/106
f 45/46/106 33/57/109 41/55/110
f 45/46/106 41/55/110 43/53/111
f 45/46/106 43/53/111 38/51/112
f 45/46/106 38/51/112 37/49/113
f 45/46/106 37/49/113 40/47/107
f 44/48/114 45/46/106 39/45/105
f 42/50/115 45/46/106 44/48/114
f 36/52/116 45/46/106 42/50/115
f 35/54/117 45/46/106 36/52/116
f 34/56/108 45/46/106 35/54/117
